<svg xmlns="http://www.w3.org/2000/svg" width="800" height="800" viewBox="0 0 203.786 203.786" xml:space="preserve"><path d="M107.387 49.855c9.34 9.292 13.223 21.961 11.71 34.09-1.1-8.73-4.972-17.191-11.71-23.874-16.015-15.93-41.91-15.844-57.833.166-6.641 6.682-10.454 15.07-11.538 23.738-1.513-12.052 2.302-24.659 11.538-33.942 15.923-16.022 41.818-16.101 57.833-.178zm96.399 136.458-17.064 17.171-50.603-50.307 4.268-4.291-10.609-10.557c-14.251 12.318-32.19 19.086-51.226 19.086-20.9 0-40.566-8.121-55.387-22.857C8.287 119.771.06 100.07 0 79.084c-.062-20.978 8.056-40.729 22.848-55.612C37.707 8.524 57.488.302 78.557.302c20.895 0 40.568 8.119 55.387 22.852 14.878 14.797 23.1 34.498 23.158 55.478.06 18.95-6.614 36.854-18.79 51.117l10.604 10.539 4.273-4.292 50.597 50.317zm-78.111-60.596c12.508-12.59 19.382-29.291 19.335-47.038-.054-17.747-7.011-34.415-19.589-46.932-12.542-12.469-29.185-19.328-46.857-19.328-17.818 0-34.555 6.957-47.126 19.594-12.517 12.584-19.379 29.288-19.326 47.041.047 17.747 7.01 34.416 19.591 46.922 12.537 12.472 29.175 19.334 46.854 19.334 17.807.006 34.552-6.956 47.118-19.593z"/></svg>